<svg width="121" height="120" viewBox="0 0 121 120" fill="none" xmlns="http://www.w3.org/2000/svg">
<g clip-path="url(#clip0)">
<path d="M111.212 30.9678L96.38 24.4244L89.7763 9.70929L73.635 11.3811L60.503 1.9364L47.3633 11.3811L31.2296 9.70929L24.6307 24.4178L9.79302 30.9678L11.4797 46.9757L1.9563 59.9992L11.4797 73.0303L9.79302 89.0306L24.625 95.574L31.2296 110.289L47.3709 108.617L60.503 118.062L73.6426 108.617L89.7763 110.289L96.3742 95.5797L111.212 89.0306L109.525 73.0227L119.05 59.9992L109.525 46.9682L111.212 30.9678ZM48.7936 83.2243L32.2245 66.7921L37.7475 61.3345L48.7936 72.2695L81.911 39.4258L87.4341 44.9023L48.7936 83.2243Z" fill="#A1B78B"/>
<path d="M120.631 58.8632L111.544 46.4313L113.154 31.1634C113.242 30.3289 112.779 29.5342 112.006 29.193L97.8621 22.9511L91.5681 8.923C91.2222 8.15847 90.4218 7.70013 89.5813 7.78329L74.1833 9.37945L61.6487 0.368563C60.9655 -0.122854 60.0412 -0.122854 59.3579 0.368563L46.8224 9.37945L31.4253 7.78329C30.5858 7.70391 29.7882 8.1613 29.4385 8.92111L23.1446 22.9492L8.9996 29.193C8.22775 29.5332 7.76463 30.328 7.8523 31.1615L9.46176 46.4313L0.375784 58.8632C-0.119728 59.5408 -0.119728 60.4575 0.375784 61.1351L9.46176 73.5661L7.8523 88.8368C7.76368 89.6704 8.22679 90.4661 8.9996 90.8072L23.1446 97.0492L29.4385 111.077C29.7863 111.839 30.5849 112.297 31.4253 112.217L46.8224 110.62L59.3579 119.632C60.0412 120.123 60.9655 120.123 61.6487 119.632L74.1833 110.62L89.5813 112.217C90.4218 112.301 91.2213 111.843 91.5681 111.079L97.8621 97.0511L112.006 90.8072C112.778 90.4661 113.241 89.6723 113.154 88.8387L111.544 73.568L120.631 61.137C121.127 60.4594 121.127 59.5408 120.631 58.8632ZM107.946 71.8943C107.663 72.2808 107.534 72.7571 107.585 73.2315L109.123 87.8398L95.5884 93.8153C95.1463 94.0081 94.7918 94.3577 94.5965 94.7962L88.576 108.219L73.8421 106.691C73.3638 106.642 72.8845 106.771 72.4957 107.051L60.5033 115.672L48.5091 107.051C48.1765 106.81 47.7763 106.681 47.3656 106.682C47.297 106.682 47.2284 106.682 47.1702 106.691L32.4354 108.219L26.4149 94.7962C26.2186 94.3577 25.8661 94.0071 25.4239 93.8124L11.8821 87.8398L13.4201 73.2315C13.4697 72.7571 13.341 72.2808 13.059 71.8943L4.36656 59.9992L13.059 48.104C13.341 47.7175 13.4697 47.2412 13.4201 46.7668L11.8821 32.1576L25.4163 26.1831C25.8584 25.9903 26.212 25.6406 26.4073 25.2021L32.4278 11.7798L47.1626 13.307C47.64 13.3543 48.1193 13.2257 48.5091 12.9469L60.5033 4.32636L72.4976 12.9469C72.8864 13.2267 73.3657 13.3543 73.844 13.307L88.5779 11.7798L94.5984 25.2021C94.7947 25.6406 95.1482 25.9903 95.5903 26.185L109.124 32.1576L107.587 46.7668C107.536 47.2412 107.665 47.7175 107.948 48.104L116.639 59.9992L107.946 71.8943Z" fill="#768D66"/>
<path d="M83.2907 38.0574C82.5283 37.3013 81.2934 37.3013 80.531 38.0574L48.7935 69.5326L39.1272 59.9642C38.3658 59.211 37.1327 59.211 36.3714 59.9642L30.8388 65.418C30.4719 65.7809 30.2651 66.2742 30.2651 66.7883C30.2651 67.3024 30.4719 67.7957 30.8388 68.1586L47.408 84.5908C48.1693 85.3459 49.4053 85.3459 50.1676 84.5908L88.808 46.2688C89.5694 45.5137 89.5694 44.288 88.808 43.532L83.2907 38.0574ZM48.7935 80.4875L34.9858 66.7939L37.7455 64.0637L47.4156 73.6341C48.177 74.3882 49.411 74.3882 50.1733 73.6341L81.9109 42.1617L84.6743 44.9022L48.7935 80.4875Z" fill="#768D66"/>
</g>
<defs>
<clipPath id="clip0">
<rect width="121" height="120" fill="white"/>
</clipPath>
</defs>
</svg>
